<svg width="17" height="17" viewBox="0 0 17 17" fill="none" xmlns="http://www.w3.org/2000/svg">
<path d="M8.24024 1.20703C6.85577 1.20703 5.50239 1.61757 4.35125 2.38674C3.2001 3.15591 2.30289 4.24916 1.77308 5.52825C1.24327 6.80733 1.10464 8.2148 1.37474 9.57266C1.64484 10.9305 2.31152 12.1778 3.29049 13.1568C4.26946 14.1357 5.51674 14.8024 6.87461 15.0725C8.23247 15.3426 9.63994 15.204 10.919 14.6742C12.1981 14.1444 13.2914 13.2472 14.0605 12.096C14.8297 10.9449 15.2402 9.5915 15.2402 8.20703C15.2402 6.35052 14.5027 4.57004 13.19 3.25728C11.8772 1.94453 10.0968 1.20703 8.24024 1.20703ZM8.24024 14.207C7.05355 14.207 5.89351 13.8551 4.90682 13.1958C3.92012 12.5366 3.15109 11.5995 2.69696 10.5031C2.24283 9.40678 2.12401 8.20038 2.35553 7.03649C2.58704 5.8726 3.15848 4.80351 3.9976 3.96439C4.83671 3.12528 5.90581 2.55383 7.0697 2.32232C8.23358 2.09081 9.43998 2.20963 10.5363 2.66375C11.6327 3.11788 12.5698 3.88692 13.2291 4.87361C13.8883 5.8603 14.2402 7.02034 14.2402 8.20703C14.2402 9.79833 13.6081 11.3245 12.4829 12.4497C11.3577 13.5749 9.83154 14.207 8.24024 14.207Z" fill="white"/>
<path d="M8.74024 4.20703H7.74024V9.70703H8.74024V4.20703Z" fill="white"/>
<path d="M8.24024 11.207C8.0919 11.207 7.9469 11.251 7.82356 11.3334C7.70022 11.4158 7.60409 11.533 7.54733 11.67C7.49056 11.8071 7.47571 11.9579 7.50465 12.1033C7.53359 12.2488 7.60502 12.3825 7.70991 12.4874C7.8148 12.5923 7.94843 12.6637 8.09392 12.6926C8.23941 12.7216 8.3902 12.7067 8.52725 12.6499C8.66429 12.5932 8.78143 12.497 8.86384 12.3737C8.94625 12.2504 8.99024 12.1054 8.99024 11.957C8.99024 11.7581 8.91122 11.5674 8.77057 11.4267C8.62991 11.286 8.43915 11.207 8.24024 11.207Z" fill="white"/>
</svg>
