<svg width="50" height="24" viewBox="0 0 24 24" fill="none" xmlns="http://www.w3.org/2000/svg">
<g clip-path="url(#clip0_1303_299)">
<path fill-rule="evenodd" clip-rule="evenodd" d="M15 3V1.5H22.5V9H21V4.0575L14.5575 10.5L13.5 9.4425L19.9425 3H15ZM3.43934 20.5607C3.72064 20.842 4.10218 21 4.5 21H19.5C19.8978 21 20.2794 20.842 20.5607 20.5607C20.842 20.2794 21 19.8978 21 19.5V12H19.5V19.5H4.5V4.5H12V3H4.5C4.10218 3 3.72064 3.15803 3.43934 3.43934C3.15803 3.72064 3 4.10218 3 4.5V19.5C3 19.8978 3.15803 20.2794 3.43934 20.5607Z" fill="#4051b5"/>
</g>
<defs>
<clipPath id="clip0_1303_299">
<rect width="24" height="24" fill="white"/>
</clipPath>
</defs>
</svg>
