<svg width="32" height="32" viewBox="0 0 32 32" fill="none" xmlns="http://www.w3.org/2000/svg">
<path d="M3 31V27.8781C3 27.2406 3.15347 26.65 3.46042 26.1063C3.76736 25.5625 4.19167 25.15 4.73333 24.8688C4.98611 24.7375 5.22986 24.6156 5.46458 24.5031C5.71736 24.3906 5.97917 24.2875 6.25 24.1938V31H3ZM7.33333 23.125C6.43056 23.125 5.66319 22.7969 5.03125 22.1406C4.39931 21.4844 4.08333 20.6875 4.08333 19.75C4.08333 18.8125 4.39931 18.0156 5.03125 17.3594C5.66319 16.7031 6.43056 16.375 7.33333 16.375C8.23611 16.375 9.00347 16.7031 9.63542 17.3594C10.2674 18.0156 10.5833 18.8125 10.5833 19.75C10.5833 20.6875 10.2674 21.4844 9.63542 22.1406C9.00347 22.7969 8.23611 23.125 7.33333 23.125ZM7.33333 20.875C7.64028 20.875 7.89306 20.7719 8.09167 20.5656C8.30833 20.3406 8.41667 20.0688 8.41667 19.75C8.41667 19.4313 8.30833 19.1688 8.09167 18.9625C7.89306 18.7375 7.64028 18.625 7.33333 18.625C7.02639 18.625 6.76458 18.7375 6.54792 18.9625C6.34931 19.1688 6.25 19.4313 6.25 19.75C6.25 20.0688 6.34931 20.3406 6.54792 20.5656C6.76458 20.7719 7.02639 20.875 7.33333 20.875ZM7.33333 31V27.85C7.33333 27.2125 7.48681 26.6313 7.79375 26.1063C8.11875 25.5625 8.54306 25.15 9.06667 24.8688C10.1861 24.2875 11.3236 23.8563 12.4792 23.575C13.6347 23.275 14.8083 23.125 16 23.125C17.1917 23.125 18.3653 23.275 19.5208 23.575C20.6764 23.8563 21.8139 24.2875 22.9333 24.8688C23.4569 25.15 23.8722 25.5625 24.1792 26.1063C24.5042 26.6313 24.6667 27.2125 24.6667 27.85V31H7.33333ZM9.5 28.75H22.5V27.85C22.5 27.6438 22.4458 27.4563 22.3375 27.2875C22.2472 27.1188 22.1208 26.9875 21.9583 26.8937C20.9833 26.3875 19.9993 26.0125 19.0063 25.7688C18.0132 25.5063 17.0111 25.375 16 25.375C14.9889 25.375 13.9868 25.5063 12.9938 25.7688C12.0007 26.0125 11.0167 26.3875 10.0417 26.8937C9.87917 26.9875 9.74375 27.1188 9.63542 27.2875C9.54514 27.4563 9.5 27.6438 9.5 27.85V28.75ZM16 22C14.8083 22 13.7882 21.5594 12.9396 20.6781C12.091 19.7969 11.6667 18.7375 11.6667 17.5C11.6667 16.2625 12.091 15.2031 12.9396 14.3219C13.7882 13.4406 14.8083 13 16 13C17.1917 13 18.2118 13.4406 19.0604 14.3219C19.909 15.2031 20.3333 16.2625 20.3333 17.5C20.3333 18.7375 19.909 19.7969 19.0604 20.6781C18.2118 21.5594 17.1917 22 16 22ZM16 19.75C16.5958 19.75 17.1014 19.5344 17.5167 19.1031C17.95 18.6531 18.1667 18.1188 18.1667 17.5C18.1667 16.8813 17.95 16.3563 17.5167 15.925C17.1014 15.475 16.5958 15.25 16 15.25C15.4042 15.25 14.8896 15.475 14.4563 15.925C14.041 16.3563 13.8333 16.8813 13.8333 17.5C13.8333 18.1188 14.041 18.6531 14.4563 19.1031C14.8896 19.5344 15.4042 19.75 16 19.75ZM24.6667 23.125C23.7639 23.125 22.9965 22.7969 22.3646 22.1406C21.7326 21.4844 21.4167 20.6875 21.4167 19.75C21.4167 18.8125 21.7326 18.0156 22.3646 17.3594C22.9965 16.7031 23.7639 16.375 24.6667 16.375C25.5694 16.375 26.3368 16.7031 26.9688 17.3594C27.6007 18.0156 27.9167 18.8125 27.9167 19.75C27.9167 20.6875 27.6007 21.4844 26.9688 22.1406C26.3368 22.7969 25.5694 23.125 24.6667 23.125ZM24.6667 20.875C24.9736 20.875 25.2264 20.7719 25.425 20.5656C25.6417 20.3406 25.75 20.0688 25.75 19.75C25.75 19.4313 25.6417 19.1688 25.425 18.9625C25.2264 18.7375 24.9736 18.625 24.6667 18.625C24.3597 18.625 24.0979 18.7375 23.8813 18.9625C23.6826 19.1688 23.5833 19.4313 23.5833 19.75C23.5833 20.0688 23.6826 20.3406 23.8813 20.5656C24.0979 20.7719 24.3597 20.875 24.6667 20.875ZM25.75 31V24.1938C26.0208 24.2875 26.2736 24.3906 26.5083 24.5031C26.7611 24.6156 27.0139 24.7375 27.2667 24.8688C27.8083 25.15 28.2326 25.5625 28.5396 26.1063C28.8465 26.65 29 27.2406 29 27.8781V31H25.75Z" fill="#1D1B20"/>
<path d="M10.125 6.125H13.875V7.375H10.125V6.125Z" fill="black"/>
<path d="M15.125 6.125H18.875V7.375H15.125V6.125Z" fill="black"/>
<path d="M20.125 6.125H22V7.375H20.125V6.125Z" fill="black"/>
<path d="M9.5 3.625H12V4.875H9.5V3.625Z" fill="black"/>
<path d="M13.25 3.625H17.625V4.875H13.25V3.625Z" fill="black"/>
<path d="M18.875 3.625H22V4.875H18.875V3.625Z" fill="black"/>
<path d="M13.6651 12.25L14.75 11.625L13.25 9.25H9.5C9.33577 9.25028 9.1731 9.21814 9.02132 9.15542C8.86953 9.0927 8.73162 9.00064 8.61549 8.88451C8.49936 8.76838 8.4073 8.63047 8.34458 8.47869C8.28186 8.3269 8.24972 8.16423 8.25 8V3.5C8.24972 3.33577 8.28186 3.1731 8.34458 3.02131C8.4073 2.86953 8.49936 2.73162 8.61549 2.61549C8.73162 2.49936 8.86953 2.4073 9.02132 2.34458C9.1731 2.28186 9.33577 2.24972 9.5 2.25H22C22.1642 2.24972 22.3269 2.28186 22.4787 2.34458C22.6305 2.4073 22.7684 2.49936 22.8845 2.61549C23.0006 2.73162 23.0927 2.86953 23.1554 3.02131C23.2181 3.1731 23.2503 3.33577 23.25 3.5V8C23.2503 8.16423 23.2181 8.3269 23.1554 8.47869C23.0927 8.63047 23.0006 8.76838 22.8845 8.88451C22.7684 9.00064 22.6305 9.0927 22.4787 9.15542C22.3269 9.21814 22.1642 9.25028 22 9.25H16.375V10.5H22C22.3283 10.5001 22.6534 10.4354 22.9568 10.3098C23.2601 10.1842 23.5357 10.0001 23.7679 9.76789C24.0001 9.53574 24.1842 9.26012 24.3098 8.95678C24.4354 8.65344 24.5001 8.32832 24.5 8V3.5C24.5001 3.17167 24.4355 2.84653 24.3099 2.54318C24.1843 2.23982 24.0002 1.96418 23.768 1.73201C23.5358 1.49985 23.2602 1.3157 22.9568 1.1901C22.6535 1.0645 22.3283 0.999902 22 1H9.5C9.17167 0.999902 8.84653 1.0645 8.54317 1.1901C8.23981 1.3157 7.96418 1.49985 7.73201 1.73201C7.49985 1.96418 7.3157 2.23982 7.1901 2.54318C7.0645 2.84653 6.9999 3.17167 7 3.5V8C6.99994 8.32832 7.06457 8.65344 7.19018 8.95678C7.3158 9.26012 7.49995 9.53574 7.73211 9.76789C7.96426 10.0001 8.23988 10.1842 8.54322 10.3098C8.84656 10.4354 9.17168 10.5001 9.5 10.5H12.5221L13.6651 12.25Z" fill="black"/>
</svg>
