<svg width="32" height="32" viewBox="0 0 32 32" fill="none" xmlns="http://www.w3.org/2000/svg">
<path d="M25 10.0001H24.94C24.6855 7.80752 23.6342 5.78491 21.9859 4.31683C20.3376 2.84875 18.2073 2.0376 16 2.0376C13.7927 2.0376 11.6624 2.84875 10.0141 4.31683C8.36578 5.78491 7.31445 7.80752 7.06 10.0001H7C5.67392 10.0001 4.40215 10.5269 3.46447 11.4646C2.52678 12.4022 2 13.674 2 15.0001C2 16.3262 2.52678 17.598 3.46447 18.5356C4.40215 19.4733 5.67392 20.0001 7 20.0001H9V11.0001C9 9.14359 9.7375 7.36311 11.0503 6.05035C12.363 4.7376 14.1435 4.0001 16 4.0001C17.8565 4.0001 19.637 4.7376 20.9497 6.05035C22.2625 7.36311 23 9.14359 23 11.0001V21.0001C22.9993 21.9163 22.6841 22.8045 22.1071 23.5162C21.5301 24.2279 20.7263 24.72 19.83 24.9101C19.5631 23.9739 18.9638 23.1671 18.1446 22.6411C17.3254 22.115 16.3425 21.9058 15.3801 22.0526C14.4177 22.1994 13.5419 22.6922 12.9168 23.4386C12.2917 24.1849 11.9602 25.1336 11.9846 26.1069C12.0089 27.0801 12.3873 28.0111 13.0489 28.7253C13.7105 29.4394 14.6099 29.8878 15.5785 29.9864C16.547 30.0849 17.5182 29.8268 18.3101 29.2605C19.102 28.6942 19.6602 27.8585 19.88 26.9101C21.299 26.6997 22.5957 25.9879 23.5349 24.9037C24.4742 23.8195 24.994 22.4346 25 21.0001V20.0001C26.3261 20.0001 27.5979 19.4733 28.5355 18.5356C29.4732 17.598 30 16.3262 30 15.0001C30 13.674 29.4732 12.4022 28.5355 11.4646C27.5979 10.5269 26.3261 10.0001 25 10.0001ZM4 15.0001C4 14.2045 4.31607 13.4414 4.87868 12.8788C5.44129 12.3162 6.20435 12.0001 7 12.0001V18.0001C6.20435 18.0001 5.44129 17.684 4.87868 17.1214C4.31607 16.5588 4 15.7958 4 15.0001ZM16 28.0001C15.6044 28.0001 15.2178 27.8828 14.8889 27.663C14.56 27.4433 14.3036 27.1309 14.1522 26.7655C14.0009 26.4 13.9613 25.9979 14.0384 25.6099C14.1156 25.222 14.3061 24.8656 14.5858 24.5859C14.8655 24.3062 15.2219 24.1157 15.6098 24.0385C15.9978 23.9614 16.3999 24.001 16.7654 24.1523C17.1308 24.3037 17.4432 24.5601 17.6629 24.889C17.8827 25.2179 18 25.6045 18 26.0001C18 26.5305 17.7893 27.0392 17.4142 27.4143C17.0391 27.7894 16.5304 28.0001 16 28.0001ZM25 18.0001V12.0001C25.7956 12.0001 26.5587 12.3162 27.1213 12.8788C27.6839 13.4414 28 14.2045 28 15.0001C28 15.7958 27.6839 16.5588 27.1213 17.1214C26.5587 17.684 25.7956 18.0001 25 18.0001Z" fill="black"/>
</svg>
