<svg width="32" height="32" viewBox="0 0 32 32" fill="none" xmlns="http://www.w3.org/2000/svg">
<path d="M16 2.28571C18.7124 2.28571 21.3639 3.09004 23.6193 4.59699C25.8746 6.10393 27.6323 8.24581 28.6703 10.7518C29.7083 13.2577 29.9799 16.0152 29.4508 18.6755C28.9216 21.3358 27.6154 23.7795 25.6975 25.6975C23.7795 27.6154 21.3358 28.9216 18.6755 29.4508C16.0152 29.9799 13.2577 29.7083 10.7518 28.6703C8.24582 27.6323 6.10394 25.8745 4.59699 23.6192C3.09005 21.3639 2.28572 18.7124 2.28572 16C2.28572 12.3627 3.73061 8.87446 6.30254 6.30253C8.87447 3.73061 12.3628 2.28571 16 2.28571ZM16 0C12.8355 0 9.74207 0.938384 7.11088 2.69649C4.4797 4.45459 2.42894 6.95345 1.21793 9.87706C0.00693253 12.8007 -0.309921 16.0177 0.307443 19.1214C0.924806 22.2251 2.44866 25.0761 4.6863 27.3137C6.92394 29.5513 9.77487 31.0752 12.8786 31.6926C15.9823 32.3099 19.1993 31.9931 22.1229 30.7821C25.0466 29.5711 27.5454 27.5203 29.3035 24.8891C31.0616 22.2579 32 19.1645 32 16C32 11.7565 30.3143 7.68687 27.3137 4.68629C24.3131 1.68571 20.2435 0 16 0Z" fill="black"/>
<path d="M16 9.14286C17.3562 9.14286 18.682 9.54502 19.8096 10.2985C20.9373 11.052 21.8162 12.1229 22.3352 13.3759C22.8542 14.6289 22.99 16.0076 22.7254 17.3378C22.4608 18.6679 21.8077 19.8897 20.8487 20.8487C19.8897 21.8077 18.6679 22.4608 17.3378 22.7254C16.0076 22.99 14.6289 22.8542 13.3759 22.3352C12.1229 21.8162 11.052 20.9373 10.2985 19.8096C9.54502 18.682 9.14286 17.3562 9.14286 16C9.14286 14.1814 9.86531 12.4372 11.1513 11.1513C12.4372 9.8653 14.1814 9.14286 16 9.14286ZM16 8C14.4178 8 12.871 8.46919 11.5554 9.34824C10.2398 10.2273 9.21447 11.4767 8.60897 12.9385C8.00347 14.4003 7.84504 16.0089 8.15372 17.5607C8.4624 19.1126 9.22433 20.538 10.3431 21.6569C11.462 22.7757 12.8874 23.5376 14.4393 23.8463C15.9911 24.155 17.5997 23.9965 19.0615 23.391C20.5233 22.7855 21.7727 21.7602 22.6518 20.4446C23.5308 19.129 24 17.5822 24 16C24 13.8783 23.1571 11.8434 21.6569 10.3431C20.1566 8.84285 18.1217 8 16 8Z" fill="black" stroke="black"/>
<path d="M9 12.6296L2.98743 9C0.242823 14.5647 0.43447 17.6133 2.98743 23L9 19.3704C7.97175 16.7347 7.87125 15.2637 9 12.6296Z" fill="black" stroke="black"/>
<path d="M23 12.6296L29.0126 9C31.7572 14.5647 31.5655 17.6133 29.0126 23L23 19.3704C24.0282 16.7347 24.1288 15.2637 23 12.6296Z" fill="black" stroke="black"/>
<path d="M12.6296 23L9 29.0126C14.5647 31.7572 17.6133 31.5655 23 29.0126L19.3704 23C16.7347 24.0282 15.2637 24.1288 12.6296 23Z" fill="black" stroke="black"/>
<path d="M12.6296 9L9 2.98743C14.5647 0.242822 17.6133 0.43447 23 2.98743L19.3704 9C16.7347 7.97175 15.2637 7.87125 12.6296 9Z" fill="black" stroke="black"/>
</svg>
