<svg width="45" height="43" viewBox="0 0 45 43" fill="none" xmlns="http://www.w3.org/2000/svg">
<path d="M35.1211 29.8789C34.8444 29.6006 34.5155 29.3797 34.1532 29.2289C33.7909 29.0781 33.4024 29.0003 33.01 29H33C32.6059 28.9988 32.2154 29.0759 31.8513 29.2268C31.4872 29.3777 31.1567 29.5993 30.8789 29.8789L25.9778 34.78C25.9237 34.0264 25.5868 33.3211 25.0345 32.8056C24.4823 32.29 23.7555 32.0022 23 32H16C14.6744 32.0016 13.4035 32.5289 12.4662 33.4662C11.5288 34.4035 11.0016 35.6744 11 37V37.667L8 41.6631L9.6 42.8631L13 38.333V37C13.0009 36.2046 13.3172 35.4421 13.8796 34.8797C14.4421 34.3172 15.2046 34.0009 16 34H23C23.2652 34 23.5196 34.1054 23.7071 34.2929C23.8946 34.4804 24 34.7348 24 35C24 35.2652 23.8946 35.5196 23.7071 35.7071C23.5196 35.8947 23.2652 36 23 36H19V38H23.9287C24.4543 38.0015 24.9749 37.8988 25.4605 37.6976C25.946 37.4964 26.3868 37.2009 26.7573 36.8281L32.293 31.293C32.3856 31.1998 32.4958 31.126 32.6171 31.0757C32.7385 31.0254 32.8686 30.9997 33 31H33.0034C33.2009 31.0007 33.3937 31.0599 33.5576 31.17C33.7215 31.2802 33.8491 31.4364 33.9243 31.6189C33.9996 31.8015 34.0191 32.0022 33.9804 32.1959C33.9417 32.3895 33.8466 32.5674 33.707 32.707L26.293 40.1211C26.0151 40.4007 25.6845 40.6223 25.3203 40.7732C24.9561 40.9241 24.5656 41.0012 24.1714 41H17V43H24.1714C24.8283 43.0018 25.4791 42.8733 26.086 42.6218C26.6929 42.3704 27.2438 42.0011 27.707 41.5352L35.1211 34.1211C35.3997 33.8426 35.6208 33.512 35.7716 33.148C35.9224 32.7841 36 32.394 36 32C36 31.6061 35.9224 31.216 35.7716 30.852C35.6208 30.4881 35.3997 30.1574 35.1211 29.8789Z" fill="black"/>
<path d="M14.24 17.951L22 21.9753L29.76 17.951M22 30V21.9673M30 25.1549V18.7797C29.9997 18.5002 29.9174 18.2257 29.7614 17.9838C29.6054 17.7418 29.3811 17.5408 29.1111 17.4011L22.8889 14.2135C22.6186 14.0736 22.3121 14 22 14C21.6879 14 21.3814 14.0736 21.1111 14.2135L14.8889 17.4011C14.6189 17.5408 14.3946 17.7418 14.2386 17.9838C14.0826 18.2257 14.0003 18.5002 14 18.7797V25.1549C14.0003 25.4344 14.0826 25.7089 14.2386 25.9509C14.3946 26.1928 14.6189 26.3938 14.8889 26.5335L17 27.5C17.2703 27.6399 21.6879 29.9346 22 29.9346C22.3121 29.9346 22.6186 29.861 22.8889 29.7211L29.1111 26.5335C29.3811 26.3938 29.6054 26.1928 29.7614 25.9509C29.9174 25.7089 29.9997 25.4344 30 25.1549Z" stroke="#1E1E1E" stroke-width="2" stroke-linecap="round" stroke-linejoin="round"/>
<path d="M25.5146 6.126L34.5142 1.126C34.8169 0.958 35.1831 0.958 35.4859 1.126L44.4858 6.126C44.8032 6.3023 45 6.6367 45 7V17C45 17.3633 44.8032 17.6982 44.4858 17.874L35.4858 22.874C35.3344 22.958 35.167 23 35 23C34.8247 23 34.6494 22.9541 34.4927 22.8623C34.1875 22.6826 34 22.3545 34 22V12.5884L27 8.6993V13H25V7C25 6.6367 25.1973 6.3022 25.5146 6.126ZM35 3.144L28.0589 7.0001L35 10.8559L41.9409 6.9999L35 3.144ZM43 16.4111V8.6994L36 12.5883V20.3007L43 16.4111Z" fill="black"/>
<path d="M19.4854 5.126L10.4858 0.126C10.1831 -0.042 9.8169 -0.042 9.5141 0.126L0.5142 5.126C0.1968 5.3023 0 5.6367 0 6V16C0 16.3633 0.1968 16.6982 0.5142 16.874L9.5142 21.874C9.6656 21.958 9.833 22 10 22C10.1753 22 10.3506 21.9541 10.5073 21.8623C10.8125 21.6826 11 21.3545 11 21V11.5884L18 7.6993V12H20V6C20 5.6367 19.8027 5.3022 19.4854 5.126ZM10 2.144L16.9411 6.0001L10 9.8559L3.0591 5.9999L10 2.144ZM2 15.4111V7.6994L9 11.5883V19.3007L2 15.4111Z" fill="black"/>
</svg>
