<svg width="32" height="32" viewBox="0 0 32 32" fill="none" xmlns="http://www.w3.org/2000/svg">
<path d="M16 24C15.8345 24 15.6715 23.9587 15.5259 23.88L2.52592 16.88L3.47412 15.12L16 21.8643L28.5259 15.12L29.4741 16.8807L16.4741 23.8807C16.3284 23.9592 16.1655 24.0002 16 24Z" fill="black"/>
<path d="M16 30C15.8345 30 15.6715 29.9587 15.5259 29.88L2.52592 22.88L3.47412 21.12L16 27.8643L28.5259 21.12L29.4741 22.8807L16.4741 29.8807C16.3284 29.9592 16.1655 30.0002 16 30Z" fill="black"/>
<path d="M16 18C15.8345 18 15.6715 17.9587 15.5259 17.88L2.52592 10.88C2.36699 10.7944 2.23421 10.6673 2.14166 10.5123C2.04911 10.3573 2.00024 10.1802 2.00024 9.99964C2.00024 9.81911 2.04911 9.64195 2.14166 9.48696C2.23421 9.33196 2.36699 9.20491 2.52592 9.11929L15.5259 2.11929C15.6716 2.04067 15.8345 1.99951 16 1.99951C16.1655 1.99951 16.3285 2.04067 16.4741 2.11929L29.4741 9.11929C29.633 9.20491 29.7658 9.33196 29.8584 9.48696C29.9509 9.64195 29.9998 9.81911 29.9998 9.99964C29.9998 10.1802 29.9509 10.3573 29.8584 10.5123C29.7658 10.6673 29.633 10.7944 29.4741 10.88L16.4741 17.88C16.3285 17.9587 16.1656 18 16 18Z" fill="black"/>
</svg>
