<svg width="27" height="26" viewBox="0 0 27 26" fill="none" xmlns="http://www.w3.org/2000/svg">
<path fill-rule="evenodd" clip-rule="evenodd" d="M24.0003 0.000328458C25.1049 0.000328458 26.0003 0.895759 26.0003 2.00033L26 8H24L24.0003 2.00033H10.0003V8.00033C10.0003 9.1049 9.1049 10.0003 8.00033 10.0003H2.00033V24H9.00033V26H2.00033C0.895759 26 0.000328464 25.1046 0.000328464 24V8.00033C-0.00681334 7.73436 0.102803 7.47858 0.300328 7.30033L7.30033 0.300328C7.47858 0.102804 7.73436 -0.0068133 8.00033 0.000328458H24.0003ZM8.00033 2.40033L2.40033 8.00033H8.00033V2.40033Z" fill="black"/>
<path fill-rule="evenodd" clip-rule="evenodd" d="M23.7103 12.2958L26.7103 15.2958C26.8041 15.3888 26.8785 15.4994 26.9292 15.6212C26.98 15.7431 27.0061 15.8738 27.0061 16.0058C27.0061 16.1378 26.98 16.2685 26.9292 16.3904C26.8785 16.5122 26.8041 16.6228 26.7103 16.7158L17.4103 26.0058H13.0003V21.5958L22.2903 12.2958C22.3833 12.2021 22.4939 12.1277 22.6158 12.0769C22.7376 12.0261 22.8683 12 23.0003 12C23.1323 12 23.2631 12.0261 23.3849 12.0769C23.5068 12.1277 23.6174 12.2021 23.7103 12.2958ZM15.0003 24.0058H16.5903L21.5903 19.0058L20.0003 17.4158L15.0003 22.4158V24.0058ZM21.4103 16.0058L23.0003 17.5958L24.5903 16.0058L23.0003 14.4158L21.4103 16.0058Z" fill="black"/>
<path d="M4 13H11V15H4V13Z" fill="black"/>
<path d="M4 18H9V20H4V18Z" fill="black"/>
</svg>
