<svg width="32" height="32" viewBox="0 0 32 32" fill="none" xmlns="http://www.w3.org/2000/svg">
<g clip-path="url(#clip0_3761_304)">
<path d="M29.9999 10.68L27.9999 4.68002C27.9304 4.47304 27.7949 4.29452 27.6144 4.17173C27.4338 4.04894 27.218 3.98864 26.9999 4.00002H4.99994C4.78187 3.98864 4.56608 4.04894 4.38551 4.17173C4.20494 4.29452 4.06952 4.47304 3.99994 4.68002L1.99994 10.68C1.98553 10.7862 1.98553 10.8938 1.99994 11V17C1.99994 17.2652 2.1053 17.5196 2.29283 17.7071C2.48037 17.8947 2.73472 18 2.99994 18H3.99994V28H5.99994V18H11.9999V28H27.9999V18H28.9999C29.2652 18 29.5195 17.8947 29.707 17.7071C29.8946 17.5196 29.9999 17.2652 29.9999 17V11C30.0143 10.8938 30.0143 10.7862 29.9999 10.68ZM25.9999 26H13.9999V18H25.9999V26ZM27.9999 16H23.9999V12H21.9999V16H16.9999V12H14.9999V16H9.99994V12H7.99994V16H3.99994V11.16L5.71994 6.00002H26.2799L27.9999 11.16V16Z" fill="black"/>
</g>
<defs>
<clipPath id="clip0_3761_304">
<rect width="32" height="32" fill="white"/>
</clipPath>
</defs>
</svg>
