<svg width="32" height="32" viewBox="0 0 32 32" fill="none" xmlns="http://www.w3.org/2000/svg">
<g clip-path="url(#clip0_3761_292)">
<path d="M8.91413 24.5L13.1711 20.2432L11.7571 18.8291L7.50004 23.0859L6.70704 22.293C6.61422 22.2001 6.50401 22.1264 6.3827 22.0761C6.26139 22.0258 6.13135 22 6.00004 22C5.86872 22 5.73869 22.0258 5.61737 22.0761C5.49606 22.1264 5.38585 22.2001 5.29304 22.293L1.29304 26.293C1.20014 26.3858 1.12644 26.496 1.07616 26.6173C1.02588 26.7387 1 26.8687 1 27C1 27.1313 1.02588 27.2614 1.07616 27.3827C1.12644 27.504 1.20014 27.6142 1.29304 27.707L4.29304 30.707C4.38586 30.7999 4.49607 30.8736 4.61738 30.9238C4.73869 30.9741 4.86872 31 5.00004 31C5.13135 31 5.26138 30.9741 5.38269 30.9238C5.504 30.8736 5.61421 30.7999 5.70704 30.707L9.70704 26.707C9.79993 26.6142 9.87363 26.504 9.92391 26.3827C9.97419 26.2614 10.0001 26.1313 10.0001 26C10.0001 25.8687 9.97419 25.7387 9.92391 25.6173C9.87363 25.496 9.79993 25.3858 9.70704 25.293L8.91413 24.5ZM5.00004 28.5859L3.41413 27L6.00004 24.4141L7.58594 26L5.00004 28.5859Z" fill="black"/>
<path d="M23.9999 30.0001C22.4092 29.9983 20.8841 29.3656 19.7593 28.2407C18.6344 27.1159 18.0017 25.5908 17.9999 24.0001C18.0007 23.4773 18.0716 22.957 18.2108 22.4532L9.54685 13.7894C9.04295 13.9284 8.52268 13.9993 7.99995 14.0001C7.02238 14.004 6.05877 13.7681 5.1936 13.313C4.32842 12.8579 3.58811 12.1975 3.03758 11.3897C2.48705 10.5819 2.14311 9.65134 2.03591 8.67967C1.92872 7.70799 2.06155 6.72485 2.42275 5.81646L2.98045 4.39456L6.29295 7.70706C6.48332 7.88887 6.73645 7.99033 6.9997 7.99033C7.26295 7.99033 7.51607 7.88887 7.70645 7.70706C7.79941 7.61427 7.87316 7.50406 7.92348 7.38273C7.9738 7.26141 7.9997 7.13135 7.9997 7.00001C7.9997 6.86866 7.9738 6.73861 7.92348 6.61728C7.87316 6.49596 7.79941 6.38575 7.70645 6.29296L4.39355 2.97906L5.81685 2.42196C6.7253 2.06122 7.70836 1.92877 8.67989 2.03623C9.65142 2.14369 10.5818 2.48776 11.3894 3.03831C12.1971 3.58886 12.8574 4.32909 13.3125 5.19412C13.7677 6.05916 14.0037 7.02261 13.9999 8.00006C13.9992 8.52281 13.9283 9.04309 13.789 9.54696L22.453 18.2105C22.957 18.0716 23.4772 18.0008 23.9999 18.0001C24.9775 17.996 25.9411 18.2319 26.8063 18.687C27.6715 19.1421 28.4118 19.8025 28.9624 20.6104C29.5129 21.4182 29.8568 22.3488 29.964 23.3204C30.0712 24.2921 29.9383 25.2753 29.577 26.1837L29.0199 27.6056L25.7069 24.2931C25.5166 24.1112 25.2634 24.0098 25.0002 24.0098C24.7369 24.0098 24.4838 24.1112 24.2934 24.2931C24.2005 24.3858 24.1267 24.496 24.0763 24.6173C24.0259 24.7386 24 24.8687 23.9999 25C23.9999 25.1313 24.0258 25.2614 24.076 25.3828C24.1263 25.5041 24.2 25.6143 24.2929 25.7072L27.6054 29.0201L26.1835 29.578C25.4886 29.8544 24.7479 29.9976 23.9999 30.0001ZM10.0624 11.4764L20.5233 21.9376L20.2841 22.547C20.05 23.1324 19.9584 23.7652 20.0171 24.3931C20.0758 25.0209 20.283 25.6258 20.6215 26.1578C20.9601 26.6898 21.4204 27.1336 21.9644 27.4526C22.5083 27.7715 23.1204 27.9565 23.7499 27.9923L22.8788 27.1212C22.6002 26.8426 22.3792 26.512 22.2284 26.148C22.0776 25.784 22 25.3939 22 25C22 24.606 22.0776 24.2159 22.2284 23.8519C22.3792 23.488 22.6002 23.1573 22.8788 22.8788C23.4504 22.3332 24.2102 22.0289 25.0003 22.029C25.7904 22.0291 26.5501 22.3336 27.1215 22.8793L27.9921 23.7501C27.9563 23.1205 27.7713 22.5084 27.4522 21.9645C27.1332 21.4205 26.6894 20.9602 26.1574 20.6217C25.6253 20.2831 25.0204 20.0759 24.3926 20.0172C23.7647 19.9586 23.1319 20.0501 22.5463 20.2843L21.9369 20.5228L11.4769 10.0628L11.7161 9.45336C11.9503 8.86786 12.0419 8.23506 11.9832 7.60719C11.9246 6.97933 11.7174 6.37443 11.3788 5.84244C11.0403 5.31045 10.58 4.86663 10.036 4.54764C9.49207 4.22864 8.88003 4.04362 8.25045 4.00786L9.12105 4.87896C9.39968 5.15748 9.62071 5.48816 9.77152 5.85212C9.92232 6.21608 9.99994 6.60619 9.99994 7.00016C9.99994 7.39412 9.92232 7.78423 9.77152 8.14819C9.62071 8.51215 9.39968 8.84284 9.12105 9.12136C8.54948 9.66688 7.78971 9.97121 6.9996 9.97112C6.20948 9.97103 5.44978 9.66652 4.87835 9.12086L4.00775 8.25006C4.04343 8.87965 4.22839 9.49171 4.54735 10.0357C4.86632 10.5797 5.31012 11.04 5.84212 11.3786C6.37411 11.7171 6.97903 11.9243 7.6069 11.9829C8.23477 12.0415 8.86757 11.9499 9.45305 11.7157L10.0624 11.4764Z" fill="black"/>
<path d="M29.1226 2.84997C28.5512 2.30441 27.7916 2 27.0015 2C26.2115 2 25.4518 2.30441 24.8804 2.84997L17.4 10.33L18.8141 11.744L26.2941 4.26397C26.4847 4.08222 26.7379 3.98083 27.0012 3.98083C27.2645 3.98083 27.5177 4.08222 27.7082 4.26397C27.8954 4.45177 28.0004 4.70609 28.0004 4.97122C28.0004 5.23634 27.8954 5.49066 27.7082 5.67847L20.2282 13.1585L21.6422 14.5726L29.1222 7.09307C29.6843 6.53009 30 5.76711 30.0001 4.9716C30.0001 4.17609 29.6846 3.41305 29.1226 2.84997Z" fill="black"/>
</g>
<defs>
<clipPath id="clip0_3761_292">
<rect width="32" height="32" fill="white"/>
</clipPath>
</defs>
</svg>
